<?xml version="1.0" standalone="no"?>
<!DOCTYPE svg PUBLIC "-//W3C//DTD SVG 20010904//EN"
 "http://www.w3.org/TR/2001/REC-SVG-20010904/DTD/svg10.dtd">
<svg version="1.0" xmlns="http://www.w3.org/2000/svg"
 width="260.000000pt" height="260.000000pt" viewBox="0 0 260.000000 260.000000"
 preserveAspectRatio="xMidYMid meet">
<metadata>
Created by potrace 1.14, written by Peter Selinger 2001-2017
</metadata>
<g transform="translate(0.000000,260.000000) scale(0.100000,-0.100000)"
fill="#000000" stroke="none">
<path d="M0 1300 l0 -1300 1300 0 1300 0 0 1123 0 1122 -237 178 -237 177
-1063 0 -1063 0 0 -1300z m479 905 c300 -201 456 -308 463 -319 4 -6 8 -34 8
-63 0 -44 -4 -54 -29 -75 -69 -56 -574 -388 -590 -388 -11 0 -21 6 -23 13 -4
10 -3 250 1 269 0 3 61 43 134 89 72 45 135 85 140 89 7 6 -75 62 -205 141
-32 18 -61 43 -65 54 -4 11 -8 72 -9 135 -1 107 6 150 24 150 5 0 72 -43 151
-95z m292 -1075 c146 -28 230 -128 229 -274 -1 -98 -45 -174 -127 -218 -62
-34 -83 -38 -223 -44 -63 -3 -116 -7 -119 -9 -2 -2 -3 -62 -3 -132 1 -77 -3
-132 -10 -140 -15 -18 -207 -18 -209 0 -7 59 -4 796 3 810 8 15 28 17 207 17
109 0 222 -5 252 -10z m556 -2 c4 -7 7 -155 8 -328 l0 -315 175 -2 c96 -2 185
-5 197 -8 20 -5 22 -11 22 -77 0 -40 -5 -78 -11 -85 -15 -19 -583 -19 -595 0
-11 17 -11 799 0 815 6 8 40 12 103 12 63 0 95 -4 101 -12z"/>
<path d="M540 972 c-13 -2 -16 -21 -16 -107 l0 -105 89 0 c122 0 153 19 162
98 4 38 -13 78 -41 97 -22 14 -151 26 -194 17z"/>
</g>
</svg>
