<svg xmlns="http://www.w3.org/2000/svg" width="22" height="22" viewBox="0 0 22 22"><path d="M11.417,11.342h-.034c-1.365,0-2.567-.347-3.278.307a1.8,1.8,0,0,0-.6,1.372c0,2.122,1.7,2.383,3.883,2.383h.033c2.183,0,3.883-.262,3.883-2.383a1.8,1.8,0,0,0-.6-1.372C13.984,10.994,12.782,11.342,11.417,11.342Zm-1.859,2.9c-.416,0-.752-.467-.752-1.043s.336-1.04.752-1.04.753.465.753,1.04S9.976,14.242,9.559,14.242Zm3.682,0c-.416,0-.753-.467-.753-1.043s.337-1.04.753-1.04.752.465.752,1.04S13.656,14.242,13.24,14.242ZM11.4.4a11,11,0,1,0,11,11A11,11,0,0,0,11.4.4Zm1,15.513c-.2,0-.589,0-1,0s-.807,0-1,0c-.871,0-4.322-.068-4.322-4.227a3.139,3.139,0,0,1,.865-2.24,5.168,5.168,0,0,1,.367-2.562,6.509,6.509,0,0,1,2.637,1.2,6.184,6.184,0,0,1,1.458-.14,6.278,6.278,0,0,1,1.459.139,6.509,6.509,0,0,1,2.637-1.2,5.154,5.154,0,0,1,.367,2.562,3.139,3.139,0,0,1,.865,2.24C16.726,15.847,13.275,15.913,12.4,15.913Z" transform="translate(-0.4 -0.4)" fill="#999"/></svg>