<svg xmlns="http://www.w3.org/2000/svg" width="22" height="22" viewBox="0 0 22 22"><path d="M11.4.4a11,11,0,1,0,11,11A11,11,0,0,0,11.4.4ZM8.707,15.959H6.48V8.791H8.707ZM7.58,7.911a1.115,1.115,0,1,1,.029-2.228A1.116,1.116,0,1,1,7.58,7.911Zm9.263,8.048H14.615V11.987c0-.925-.323-1.553-1.129-1.553a1.224,1.224,0,0,0-1.142.834,1.577,1.577,0,0,0-.074.557v4.133H10.041V11.077c0-.895-.029-1.643-.058-2.287h1.935l.1,1h.045a2.579,2.579,0,0,1,2.214-1.157c1.466,0,2.564.982,2.564,3.093Z" transform="translate(-0.4 -0.4)" fill="#999"/></svg>