<svg xmlns="http://www.w3.org/2000/svg" width="44" height="44" viewBox="0 0 44 44"><path d="M-887,486a21.861,21.861,0,0,1-8.563-1.729,21.925,21.925,0,0,1-6.993-4.715,21.929,21.929,0,0,1-4.715-6.993A21.865,21.865,0,0,1-909,464a21.863,21.863,0,0,1,1.729-8.563,21.928,21.928,0,0,1,4.715-6.993,21.926,21.926,0,0,1,6.993-4.715A21.861,21.861,0,0,1-887,442a21.864,21.864,0,0,1,8.564,1.729,21.925,21.925,0,0,1,6.993,4.715,21.926,21.926,0,0,1,4.715,6.993A21.861,21.861,0,0,1-865,464a21.863,21.863,0,0,1-1.729,8.564,21.927,21.927,0,0,1-4.715,6.993,21.926,21.926,0,0,1-6.993,4.715A21.864,21.864,0,0,1-887,486Zm-8.1-34a.92.92,0,0,0-.631.241.792.792,0,0,0-.27.617v22.323a.806.806,0,0,0,.27.6.889.889,0,0,0,.631.258h16.77a.972.972,0,0,0,.668-.241.792.792,0,0,0,.27-.617v-3.641a.848.848,0,0,0-.27-.635.936.936,0,0,0-.668-.257h-7.714v-5.814h2.516a6.233,6.233,0,0,0,4.5-1.579,6.379,6.379,0,0,0,1.633-4.767,6.628,6.628,0,0,0-1.633-4.837,6.077,6.077,0,0,0-4.5-1.65h-6.246a.491.491,0,0,0-.11.012,1.1,1.1,0,0,0-.167-.012Zm11.461,8.836h-2.471v-4.81h2.471a1.681,1.681,0,0,1,1.468.671,3,3,0,0,1,.474,1.761,2.666,2.666,0,0,1-.518,1.776A1.79,1.79,0,0,1-883.637,460.836Z" transform="translate(909 -442)" fill="#ff1a53"/></svg>