<svg xmlns="http://www.w3.org/2000/svg" width="359" height="468.219" viewBox="0 0 359 468.219">
  <g id="colored" transform="translate(-552 -232)">
    <path id="Path_50" data-name="Path 50" d="M51.756,55.389l119.7-56.466-51.4,121.083L-1.649,170.885Z" transform="translate(720 458.147) rotate(45)" fill="#ff1a53"/>
    <path id="Path_9" data-name="Path 9" d="M-15.778,175.754s43.1-16.493,47.523-81.682S73.288,1.264,73.288,1.264" transform="translate(764.929 398.512)" fill="none" stroke="#ff1a53" stroke-linecap="round" stroke-width="2"/>
    <path id="Path_11" data-name="Path 11" d="M0,185.265s49.917-8,44.337-88.493S49.516-32.979,49.516-32.979" transform="translate(725.479 402.978)" fill="none" stroke="#ff1a53" stroke-linecap="round" stroke-width="2"/>
    <path id="Path_23" data-name="Path 23" d="M15.446,172.055S-38.831,131.63,25.171,64.649,72.366-91.891,72.366-91.891" transform="translate(742.788 412.401)" fill="none" stroke="#ff1a53" stroke-linecap="round" stroke-width="2"/>
    <path id="Path_15" data-name="Path 15" d="M.341,277.572S-8.613,216.033,65.193,158.7,120.289,0,120.289,0" transform="translate(615.788 355.838) rotate(-22)" fill="none" stroke="#ff1a53" stroke-linecap="round" stroke-width="2"/>
    <path id="Path_31" data-name="Path 31" d="M0,148.25s27.9-27.6,13.4-82.82S50.789,0,50.789,0" transform="translate(602.552 430.257) rotate(-22)" fill="none" stroke="#ff1a53" stroke-linecap="round" stroke-width="2"/>
    <path id="Path_13" data-name="Path 13" d="M46.813,238.438s-15.449-84.886-35.9-126.386S5.038,0,5.038,0" transform="translate(615.319 355.92) rotate(3)" fill="none" stroke="#ff1a53" stroke-linecap="round" stroke-width="2"/>
    <path id="Path_17" data-name="Path 17" d="M31.208,130.949S25.468,90.9,8.359,50.658,5.7,0,5.7,0" transform="translate(662.49 467.839) rotate(3)" fill="none" stroke="#ff1a53" stroke-linecap="round" stroke-width="2"/>
    <path id="Path_25" data-name="Path 25" d="M14.706,155.271S-17,109.372,12.7,67.782,19.512,0,19.512,0" transform="translate(569.297 462.245) rotate(-31)" fill="none" stroke="#ff1a53" stroke-linecap="round" stroke-width="2"/>
    <path id="Path_21" data-name="Path 21" d="M14.427,204.188s-28.075-62.362-5.9-112.5S15.046,0,15.046,0" transform="translate(692.58 386.989) rotate(3)" fill="none" stroke="#ff1a53" stroke-linecap="round" stroke-width="2"/>
    <path id="Path_19" data-name="Path 19" d="M83.791,0S20.043-1.424,16.232,55.6,0,117.517,0,117.517" transform="translate(832.261 584.554) rotate(177)" fill="none" stroke="#ff1a53" stroke-linecap="round" stroke-width="2"/>
    <path id="Path_29" data-name="Path 29" d="M111.945,0S97.456,61.61,47.24,74.48.034,126.674.034,126.674" transform="translate(892.132 582.527) rotate(177)" fill="none" stroke="#ff1a53" stroke-linecap="round" stroke-width="2"/>
    <path id="Path_51" data-name="Path 51" d="M5.607,136.723s-15.833-46.79,5.712-79.1S27.276,0,27.276,0" transform="translate(704.661 427.64) rotate(3)" fill="none" stroke="#ff1a53" stroke-linecap="round" stroke-width="2"/>
    <path id="Subtraction_3" data-name="Subtraction 3" d="M32,64A32.008,32.008,0,0,1,19.544,2.515,32.008,32.008,0,0,1,44.456,61.485,31.8,31.8,0,0,1,32,64Zm.1-17.084h0a23.8,23.8,0,0,0,4.573,3.533,8.353,8.353,0,0,0,4.053,1.278,5.1,5.1,0,0,0,1.192-.13,3.336,3.336,0,0,0,1.019-.433A4.933,4.933,0,0,0,45.21,47.87a14.3,14.3,0,0,0,.022-5.723c-.058-.4-.131-.818-.217-1.235s-.187-.828-.3-1.235c.435-.116.85-.24,1.235-.368a11.387,11.387,0,0,0,1.149-.455,14.256,14.256,0,0,0,4.985-2.9,5.027,5.027,0,0,0,1.734-3.6,5.025,5.025,0,0,0-1.734-3.6,14.254,14.254,0,0,0-4.985-2.9c-.393-.151-.78-.3-1.149-.434-.387-.143-.8-.274-1.235-.39.115-.4.217-.819.3-1.235s.159-.832.217-1.235a14.5,14.5,0,0,0-.022-5.766,4.777,4.777,0,0,0-2.276-3.251,3.336,3.336,0,0,0-1.019-.434,5.1,5.1,0,0,0-1.192-.13,8.353,8.353,0,0,0-4.053,1.278A23.8,23.8,0,0,0,32.1,17.785a23.812,23.812,0,0,0-4.573-3.534,8.352,8.352,0,0,0-4.053-1.278,5.1,5.1,0,0,0-1.192.13,3.348,3.348,0,0,0-1.019.434,4.937,4.937,0,0,0-2.276,3.294,14.3,14.3,0,0,0-.021,5.723c.058.4.13.819.216,1.235s.188.831.3,1.235c-.434.116-.849.24-1.235.368a10.974,10.974,0,0,0-1.149.455,14.259,14.259,0,0,0-4.986,2.9,5.024,5.024,0,0,0-1.733,3.6,5.027,5.027,0,0,0,1.733,3.6,14.257,14.257,0,0,0,4.986,2.9c.389.149.776.3,1.149.433s.8.274,1.235.39c-.115.4-.217.816-.3,1.235s-.159.833-.216,1.235a14.5,14.5,0,0,0,.021,5.766,4.78,4.78,0,0,0,2.276,3.251,3.346,3.346,0,0,0,1.019.433,5.1,5.1,0,0,0,1.192.13,8.474,8.474,0,0,0,4.075-1.278,22.478,22.478,0,0,0,4.55-3.533Zm8.67,2.861a6.693,6.693,0,0,1-3.447-1.171,21.8,21.8,0,0,1-3.837-3.12c.6-.659,1.214-1.373,1.821-2.125s1.2-1.55,1.778-2.384c1.012-.087,2-.2,2.948-.347.959-.146,1.892-.321,2.774-.52.115.4.209.8.282,1.171.069.358.135.738.2,1.127a13.162,13.162,0,0,1,.13,4.573A3.324,3.324,0,0,1,41.98,49.43a2.012,2.012,0,0,1-.563.26A2.393,2.393,0,0,1,40.767,49.777Zm-17.34,0a2.386,2.386,0,0,1-.65-.086,2,2,0,0,1-.563-.26,3.321,3.321,0,0,1-1.431-2.449,13.125,13.125,0,0,1,.13-4.573,7.625,7.625,0,0,1,.173-1.127c.087-.374.189-.768.3-1.171.878.2,1.811.374,2.774.52.94.143,1.933.26,2.948.347.575.833,1.173,1.635,1.777,2.384s1.223,1.47,1.821,2.125a22.376,22.376,0,0,1-3.793,3.1A6.667,6.667,0,0,1,23.427,49.777Zm8.67-5.722h0c-.4-.435-.813-.9-1.213-1.386s-.79-.977-1.171-1.474c.39.028.791.05,1.192.065s.8.022,1.192.022.791-.007,1.193-.022.789-.037,1.191-.065c-.386.506-.78,1-1.17,1.474-.4.489-.811.955-1.214,1.386Zm0-4.768c-.631,0-1.295-.007-1.972-.022-.649-.015-1.3-.051-1.929-.108-.376-.549-.74-1.11-1.084-1.669-.355-.578-.691-1.14-1-1.669-.3-.552-.617-1.135-.932-1.734-.323-.617-.614-1.185-.888-1.734.276-.553.567-1.12.888-1.734.312-.593.625-1.177.932-1.733s.661-1.113,1.019-1.67.729-1.118,1.105-1.669c.632-.057,1.281-.094,1.929-.108s1.3-.022,1.972-.022,1.335.007,1.973.022,1.284.051,1.885.108c.407.553.787,1.115,1.127,1.669s.662,1.115.954,1.67c.344.574.673,1.158.975,1.733s.6,1.15.889,1.734c-.293.584-.592,1.167-.889,1.734s-.63,1.158-.975,1.734c-.288.547-.616,1.108-.975,1.669S36.377,38.6,36,39.156c-.661.058-1.316.094-1.95.108C33.385,39.279,32.728,39.286,32.1,39.286Zm0-10.881a3.922,3.922,0,1,0,2.8,1.149A3.822,3.822,0,0,0,32.1,28.406ZM38.555,38.9h0c.205-.323.417-.658.628-1,.221-.355.433-.719.628-1.083.2-.347.4-.7.585-1.062s.39-.728.585-1.062c.268.626.508,1.232.715,1.8.218.6.415,1.188.585,1.755-.581.145-1.186.269-1.8.369-.631.1-1.28.2-1.927.281Zm-12.918-.043h0c-.68-.089-1.328-.184-1.927-.282-.62-.1-1.225-.225-1.8-.369.171-.572.368-1.162.585-1.755s.461-1.2.715-1.8c.207.354.4.711.585,1.062.192.369.389.726.585,1.062q.347.564.65,1.063c.209.344.413.686.606,1.018ZM20,37.769h0a18.834,18.834,0,0,1-5.635-2.492c-1.352-.964-2.037-1.948-2.037-2.926a3.4,3.4,0,0,1,1.43-2.45,13.089,13.089,0,0,1,4.031-2.189c.346-.144.71-.275,1.084-.39l.5-.155.244-.075L20,26.975c.258.862.564,1.758.911,2.666s.738,1.832,1.17,2.753c-.432.921-.825,1.839-1.17,2.731S20.262,36.9,20,37.768Zm24.189-.043h0c-.258-.861-.564-1.758-.91-2.665s-.739-1.833-1.171-2.753c.43-.916.824-1.835,1.171-2.73s.652-1.784.91-2.644a18.822,18.822,0,0,1,5.635,2.492c1.352.964,2.038,1.948,2.038,2.926A3.4,3.4,0,0,1,50.433,34.8,13.1,13.1,0,0,1,46.4,36.989c-.346.144-.711.275-1.084.39l-.016.005-.656.2-.454.14Zm-3.208-7.673h0c-.193-.331-.39-.687-.584-1.06-.185-.356-.382-.714-.585-1.062l-1.257-2.081c.692.091,1.341.186,1.929.282.615.1,1.22.224,1.8.369-.173.576-.37,1.167-.585,1.755s-.453,1.188-.715,1.8ZM23.21,30.01h0c-.259-.605-.5-1.21-.715-1.8-.22-.6-.417-1.193-.585-1.755.575-.144,1.18-.268,1.8-.369s1.261-.194,1.929-.281c-.176.277-.382.6-.628,1-.215.344-.427.708-.629,1.084-.2.335-.393.692-.585,1.062-.184.354-.381.711-.584,1.061ZM42.8,24.591h0c-.9-.2-1.829-.377-2.773-.52s-1.934-.26-2.948-.347c-.58-.84-1.178-1.642-1.778-2.384s-1.215-1.461-1.821-2.124a22.348,22.348,0,0,1,3.794-3.1,6.663,6.663,0,0,1,3.49-1.192,2.374,2.374,0,0,1,.65.086,2.012,2.012,0,0,1,.563.26,3.324,3.324,0,0,1,1.431,2.449,13.163,13.163,0,0,1-.13,4.573,7.655,7.655,0,0,1-.174,1.127c-.085.369-.187.762-.3,1.17Zm-21.415,0h0c-.116-.406-.21-.8-.282-1.17s-.136-.747-.194-1.127a13.127,13.127,0,0,1-.13-4.573,3.321,3.321,0,0,1,1.431-2.449,2,2,0,0,1,.563-.26,2.369,2.369,0,0,1,.65-.086,6.7,6.7,0,0,1,3.446,1.171,21.759,21.759,0,0,1,3.837,3.12c-.6.652-1.208,1.366-1.821,2.124-.6.743-1.2,1.545-1.777,2.384-1.01.087-2,.2-2.948.347s-1.877.317-2.773.52Zm8.321-1.083h0c.39-.507.784-1,1.171-1.473.4-.486.809-.952,1.213-1.387.408.437.816.9,1.214,1.387s.792.979,1.168,1.473c-.405-.027-.805-.049-1.19-.064s-.8-.022-1.193-.022-.792.008-1.192.022-.789.037-1.192.065Z" transform="translate(822 343)" fill="#ff1a53"/>
    <path id="Subtraction_6" data-name="Subtraction 6" d="M40,80A40.011,40.011,0,0,1,24.43,3.143,40.01,40.01,0,0,1,55.57,76.857,39.751,39.751,0,0,1,40,80ZM20,23.393l3.537,39.739,16.083,4.31,16.083-4.2,3.538-39.849ZM49.569,12.174v7.461h5.969V17.148H52.056V12.174Zm-3.7,3.758v3.7h2.487V12.174h-2.6l-1.6,2.6-1.6-2.6h-2.6v7.461h2.432v-3.7L44.1,18.585h.056l1.712-2.65ZM34.2,14.661v4.974h2.487V14.661H38.9V12.174H31.993v2.486ZM26.19,17.148h2.267v2.487h2.487V12.174H28.457v2.432H26.19V12.174H23.7v7.461H26.19V17.149Zm13.43,41.617h0L29.562,56.112,28.843,48.6h4.974l.332,3.759,5.471,1.382v-.111l5.472-1.16.607-6.079H28.622L27.406,32.733l-.11-1.381H51.945l-.11,1.1L51.614,35l-.11,1.215H32.657l.5,5.306H51.062l-.111.995L49.79,55.284l-.11.773L39.621,58.765Z" transform="translate(682 232)" fill="#ff1a53"/>
    <path id="Subtraction_5" data-name="Subtraction 5" d="M35,70A35.009,35.009,0,0,1,21.377,2.75a35.009,35.009,0,0,1,27.247,64.5A34.782,34.782,0,0,1,35,70ZM18.375,18.375V52.139H52.139V18.375Zm13.66,30.962a6.169,6.169,0,0,1-.8-.051,5.137,5.137,0,0,1-2.06-.692,4.469,4.469,0,0,1-1.08-.928,6.583,6.583,0,0,1-.811-1.2l2.566-1.587c.022,0,.05.027.084.084s.074.132.118.22a4.347,4.347,0,0,0,.49.692,1.725,1.725,0,0,0,1.471.62c.1,0,.208,0,.318-.012a1.3,1.3,0,0,0,1.1-.76,3.291,3.291,0,0,0,.185-1.435c-.011-.712-.017-1.5-.017-2.347,0-1.355.006-2.735.017-4.1.011-1.334.017-2.7.017-4.069H36.81v8.677c0,.9-.005,1.752-.017,2.533a4.547,4.547,0,0,1-.558,2.161,3.3,3.3,0,0,1-1.046,1.266,4.755,4.755,0,0,1-1.519.725A6.91,6.91,0,0,1,32.036,49.337Zm12.192-.01a7.83,7.83,0,0,1-2.168-.311,5.249,5.249,0,0,1-2.38-1.367c-.277-.3-.492-.543-.658-.742a3.749,3.749,0,0,1-.49-.811l.263-.154,1.036-.605q.322-.185,1.266-.726a5.391,5.391,0,0,0,1.064,1.232,3.157,3.157,0,0,0,1.4.625,4.194,4.194,0,0,0,.607.046,3.4,3.4,0,0,0,1.487-.332,1.359,1.359,0,0,0,.675-1.705c-.179-.672-.838-1.183-1.958-1.52a10.109,10.109,0,0,1-3.14-1.587,4.044,4.044,0,0,1-1.722-2.954,4.1,4.1,0,0,1,.912-3.359,3.993,3.993,0,0,1,1.047-.844,5,5,0,0,1,1.351-.541l1.013-.135.229,0a5.9,5.9,0,0,1,2.135.34,4.279,4.279,0,0,1,1.621,1.115,4.769,4.769,0,0,1,.355.4,7.484,7.484,0,0,1,.455.676c-.508.309-.871.536-1.08.675s-.687.454-1.385.912a2.42,2.42,0,0,0-.607-.827,2.314,2.314,0,0,0-.776-.456,2.069,2.069,0,0,0-.624-.1,2.24,2.24,0,0,0-.693.114,1.2,1.2,0,0,0-.844.895,3.188,3.188,0,0,0-.034.456,2.063,2.063,0,0,0,.1.558,1.955,1.955,0,0,0,1.014.911c.514.234,1.025.461,1.519.675a8.885,8.885,0,0,1,3.14,1.908,4.271,4.271,0,0,1,1.114,2.145,4.668,4.668,0,0,1,.051,1.6c-.075.4-.129.657-.152.726a3.751,3.751,0,0,1-1.654,2.127,6.369,6.369,0,0,1-2.7.894A7.648,7.648,0,0,1,44.228,49.326Z" transform="translate(781 257)" fill="#ff1a53"/>
    <path id="Subtraction_4" data-name="Subtraction 4" d="M15.5,31A15.5,15.5,0,0,1,9.467,1.218,15.5,15.5,0,0,1,21.533,29.782,15.4,15.4,0,0,1,15.5,31Zm-.14-24.443L7.155,9.449,8.452,20.2l6.926,3.809,6.96-3.86L23.636,9.4l-8.276-2.84Zm5.3,12.829h0l-1.817-.052-1.108-2.562H15.361l-2.181.035-1,2.51-1.87.017L15.36,8.1l5.3,11.286Zm-5.3-7.687h0l-1.506,3.583h3.22L15.361,11.7Z" transform="translate(716 400)" fill="#ff1a53"/>
    <path id="Subtraction_7" data-name="Subtraction 7" d="M38.5,77A38.51,38.51,0,0,1,23.514,3.026,38.51,38.51,0,0,1,53.486,73.974,38.253,38.253,0,0,1,38.5,77ZM19.9,22.728l3.45,38.429L38.742,65.4l15.392-4.247,3.451-38.429Zm22.665-5.52v2.123h6.794V17.792l-3.025-3.557h3.025V12.113H42.564V13.97l3.556,3.239Zm-7.644,0v2.123h6.37V17.792l-2.866-3.557H41.29V12.113H34.92V13.97l3.292,3.239Zm-7.218-5.1v7.218h5.944V17.208h-3.4V14.235h3.4V12.113ZM38.742,56.965h0l-9.661-2.654-.637-7.379h4.724l.318,3.716,5.255,1.38h0L44,50.542l.584-6.158H33.54l-.053-1.008-.213-2.389-.159-1.274H45.005l.425-4.671H27.384l-.107-1.114-.213-2.548-.106-1.434h23.62l-.106,1.434L49.3,44.172,48.3,53.461v.8l-9.554,2.708Z" transform="translate(587 282)" fill="#ff1a53"/>
    <path id="Subtraction_11" data-name="Subtraction 11" d="M20.5,41A20.506,20.506,0,0,1,12.52,1.611,20.505,20.505,0,0,1,28.48,39.389,20.376,20.376,0,0,1,20.5,41Zm9.3-27.363v1.238a.5.5,0,0,1,.179.014.057.057,0,0,0,.041.013,1.379,1.379,0,0,1,.922.289,1.291,1.291,0,0,1,.262.922c.018.317.027.641.027.963v.991a4.284,4.284,0,0,0,.151,1.128,1.583,1.583,0,0,0,.7.908.055.055,0,0,0,.014.041.058.058,0,0,1,.013.041,2.266,2.266,0,0,0-.481.455,1.291,1.291,0,0,0-.261.618,5.354,5.354,0,0,0-.083.565l-.021.22-.015.157-.018.187v2.063a.986.986,0,0,1-.221.619,1.081,1.081,0,0,1-.578.289c-.119.019-.223.033-.316.041s-.2.022-.316.042v1.265c.269-.022.418-.033.537-.041.135-.01.279-.023.426-.042a2.2,2.2,0,0,0,1.335-.537,1.964,1.964,0,0,0,.564-1.279c.018-.167.032-.343.042-.523s.013-.361.013-.523c0-.328,0-.661.014-.991.008-.314.022-.639.041-.963a1.072,1.072,0,0,1,.385-.756,1.144,1.144,0,0,1,.731-.237l.094,0V19.5a1.109,1.109,0,0,1-.184.016.934.934,0,0,1-.421-.1,1.03,1.03,0,0,1-.44-.44,3.576,3.576,0,0,1-.137-.467,2.2,2.2,0,0,1-.055-.468c-.018-.409-.027-.807-.027-1.183,0-.4-.01-.8-.028-1.183a2.69,2.69,0,0,0-.234-.977,1.452,1.452,0,0,0-.7-.7,2.7,2.7,0,0,0-.964-.3,9,9,0,0,0-.991-.055ZM11.168,13.61c-.345,0-.7.009-1.045.027-.147,0-.286,0-.413.014s-.26.022-.413.041a2.121,2.121,0,0,0-1.211.51,2.121,2.121,0,0,0-.55,1.2,2.209,2.209,0,0,0-.055.481V18.15a1.776,1.776,0,0,1-.3.964,1.122,1.122,0,0,1-.853.44l.023.007.018.006c.007,0,.008,0,.008.005a.385.385,0,0,1-.131.009v1.183a1.58,1.58,0,0,1,.921.4,1.456,1.456,0,0,1,.289.922.568.568,0,0,1,.028.179v1.306c0,.375.009.746.027,1.1a3.448,3.448,0,0,0,.179.936,1.212,1.212,0,0,0,.646.688,2.684,2.684,0,0,0,.991.316,7.455,7.455,0,0,0,.881.069V25.442l-.028-.014a.131.131,0,0,0-.055-.013,1.5,1.5,0,0,1-.95-.3,1.449,1.449,0,0,1-.234-.963c0-.331,0-.655.014-.963s0-.626-.014-.936a4.189,4.189,0,0,0-.152-1.142,1.73,1.73,0,0,0-.674-.923c-.009,0-.014,0-.017-.006s0-.011,0-.021a.125.125,0,0,0,.014-.055,1.551,1.551,0,0,0,.55-.564,2.155,2.155,0,0,0,.248-.784c.018-.141.031-.294.042-.468.009-.156.013-.313.013-.468v-.99c0-.323.009-.647.028-.963a.9.9,0,0,1,.193-.591.8.8,0,0,1,.468-.29,3.715,3.715,0,0,1,.5-.068l.5-.029.218-.012v.468c0,1.1-.014,2.24-.042,3.385s-.042,2.295-.042,3.412a5.36,5.36,0,0,0,.166,1.1,1.157,1.157,0,0,0,.771.77,3.446,3.446,0,0,0,.7.207c.252.047.507.1.757.151.037-.244.069-.469.1-.688s.06-.443.1-.66a1.879,1.879,0,0,1-.907-.427,1.607,1.607,0,0,1-.193-.949c0-1.266-.014-2.548-.041-3.811-.027-1.244-.042-2.526-.042-3.811V13.61ZM20.3,22.69h0c-.042.192-.077.358-.11.523l-.055.275-.055.276a.267.267,0,0,0,.055.137.316.316,0,0,0,.11.11,6.429,6.429,0,0,0,1.789.345c.07,0,.152.005.235.005a5.185,5.185,0,0,0,1.553-.24,1.914,1.914,0,0,0,.908-.495,1.635,1.635,0,0,0,.44-.963,2.527,2.527,0,0,0-.124-1.211,1.667,1.667,0,0,0-.839-.881,5.49,5.49,0,0,0-.66-.33c-.223-.093-.455-.186-.688-.276a3.318,3.318,0,0,0-.4-.192,1.938,1.938,0,0,1-.4-.22A.633.633,0,0,1,22.23,18.4a1.988,1.988,0,0,1,.481-.11,2.567,2.567,0,0,1,.258-.013,2.358,2.358,0,0,1,.251.013,5.966,5.966,0,0,1,.675.1c.236.047.457.088.675.124l.275-1.211c-.116-.038-.224-.069-.33-.1s-.213-.049-.331-.069a8.123,8.123,0,0,0-1.321-.165c-.048,0-.1,0-.146,0a3.486,3.486,0,0,0-1.147.2,2.23,2.23,0,0,0-.908.578,1.771,1.771,0,0,0-.44.991,2.336,2.336,0,0,0,.152,1.225,1.694,1.694,0,0,0,.867.839c.194.1.369.177.536.247.2.085.362.155.51.22.188.076.364.155.523.234a4.817,4.817,0,0,1,.495.289.559.559,0,0,1,.262.3.7.7,0,0,1,.013.413.56.56,0,0,1-.207.33.763.763,0,0,1-.344.138l-.2.018-.42.037c-.068.006-.138.009-.207.009a2.334,2.334,0,0,1-.412-.037,4.19,4.19,0,0,1-.729-.124c-.245-.064-.5-.124-.757-.179Zm-3.571-5.749a3.362,3.362,0,0,0-1.093.19,3.01,3.01,0,0,0-1.83,1.651,4.382,4.382,0,0,0-.44,1.871,4.708,4.708,0,0,0,.385,1.844,2.54,2.54,0,0,0,.55.894,2.613,2.613,0,0,0,.88.591,4.488,4.488,0,0,0,1.774.376c.055,0,.114,0,.18,0a7.605,7.605,0,0,0,1.953-.345.306.306,0,0,0,.11-.11.284.284,0,0,0,.056-.11c-.019-.183-.047-.369-.083-.55-.041-.209-.077-.4-.11-.578-.149.037-.289.078-.427.124a2.3,2.3,0,0,1-.4.1,4.412,4.412,0,0,1-.866.089c-.066,0-.136,0-.207-.005a3.3,3.3,0,0,1-1.018-.221,1.581,1.581,0,0,1-.825-.7,1.351,1.351,0,0,1-.193-1h4.6a9.409,9.409,0,0,0-.013-1.128,4.476,4.476,0,0,0-.234-1.183,2.48,2.48,0,0,0-.523-.867,2.988,2.988,0,0,0-.826-.592A3.237,3.237,0,0,0,16.733,16.941Zm8.854,5.749h0l-.248,1.265a6.085,6.085,0,0,0,1.761.385c.125.008.256.013.391.013a6.444,6.444,0,0,0,1.37-.15,2.3,2.3,0,0,0,1.128-.578,1.581,1.581,0,0,0,.468-.991,2.32,2.32,0,0,0-.192-1.335,2.325,2.325,0,0,0-1.018-.894c-.156-.07-.327-.142-.523-.221l-.55-.22c-.126-.054-.26-.114-.4-.179s-.275-.135-.4-.205a.7.7,0,0,1-.248-.29.727.727,0,0,1-.055-.4.615.615,0,0,1,.152-.33.662.662,0,0,1,.317-.193c.166-.018.333-.041.5-.068a1.77,1.77,0,0,1,.289-.025,1.493,1.493,0,0,1,.179.01,5.4,5.4,0,0,1,.688.1c.2.042.425.091.688.151l.276-1.294c-.293-.052-.6-.1-.908-.151-.287-.045-.575-.085-.88-.124-.083,0-.166-.007-.247-.007a4.356,4.356,0,0,0-.731.062,2.842,2.842,0,0,0-.922.331,1.783,1.783,0,0,0-.991,1.664,1.71,1.71,0,0,0,.853,1.664c.184.092.369.18.55.262s.37.172.551.261.366.177.564.261a4.819,4.819,0,0,1,.564.289.547.547,0,0,1,.289.316.758.758,0,0,1,.013.427.538.538,0,0,1-.55.468c-.232.019-.439.037-.633.055-.065.006-.133.009-.2.009a2.307,2.307,0,0,1-.406-.037,3.971,3.971,0,0,1-.743-.124c-.24-.065-.49-.125-.743-.179ZM18.13,19.938H15.1a1.687,1.687,0,0,1,.468-1.17,1.454,1.454,0,0,1,1.112-.483h.071a1.232,1.232,0,0,1,1.018.5,1.711,1.711,0,0,1,.357,1.155Z" transform="translate(648 431)" fill="#ff1a53"/>
    <path id="Subtraction_10" data-name="Subtraction 10" d="M23.5,47A23.506,23.506,0,0,1,14.353,1.846,23.506,23.506,0,0,1,32.648,45.153,23.353,23.353,0,0,1,23.5,47ZM18.808,14.509h0L10.94,22.377a1.7,1.7,0,0,0,0,2.4l11.489,11.49a1.7,1.7,0,0,0,2.4,0L36.264,24.826a1.7,1.7,0,0,0,0-2.4l-11.49-11.49a1.7,1.7,0,0,0-2.4,0l-2.4,2.4,3.048,3.022a1.968,1.968,0,0,1,.649-.111,2.122,2.122,0,0,1,.432.046,1.924,1.924,0,0,1,.978.534,2.07,2.07,0,0,1,.534,1,1.989,1.989,0,0,1-.066,1.081l2.918,2.918a2.089,2.089,0,0,1,1.108-.065,1.842,1.842,0,0,1,.977.56,1.879,1.879,0,0,1,.6,1.407,1.962,1.962,0,0,1-.6,1.433,1.876,1.876,0,0,1-1.407.6,1.963,1.963,0,0,1-1.433-.6,1.993,1.993,0,0,1-.56-1.042,1.917,1.917,0,0,1,.118-1.146l-2.71-2.736v7.165c.087.052.172.107.26.169a1.99,1.99,0,0,1,.261,3.061,1.964,1.964,0,0,1-1.434.6,1.876,1.876,0,0,1-1.406-.6,2.029,2.029,0,0,1-.638-1.42,1.768,1.768,0,0,1,.56-1.419,2.663,2.663,0,0,1,.3-.261,2.119,2.119,0,0,1,.3-.182V20.136a1.6,1.6,0,0,1-.3-.2l-.18-.149-.119-.1a1.846,1.846,0,0,1-.534-1.055,2.1,2.1,0,0,1,.143-1.159l-2.97-2.97Z" transform="translate(552 413)" fill="#ff1a53"/>
    <path id="Subtraction_8" data-name="Subtraction 8" d="M29,58A29.008,29.008,0,0,1,17.712,2.279,29.008,29.008,0,0,1,40.288,55.721,28.821,28.821,0,0,1,29,58ZM26.016,12.985a10.1,10.1,0,0,0-2.559.333c-.844.221-1.677.473-2.475.749-.643.224-1.266.469-1.852.729s-1.189.55-1.768.853a33.694,33.694,0,0,0-3.682,2.143,18.113,18.113,0,0,0-3.225,2.767,14.939,14.939,0,0,0-1.332,1.706,8.881,8.881,0,0,0-.957,1.914c-.055.194-.118.4-.187.6s-.135.431-.188.645v.582a.912.912,0,0,0,.042.291.809.809,0,0,1,.041.25,5.544,5.544,0,0,0,.583,1.373,8.877,8.877,0,0,0,.874,1.207,9.581,9.581,0,0,0,1.5,1.5c.556.445,1.115.879,1.664,1.29.507.366,1.018.724,1.518,1.061s1.026.7,1.518,1.061a2.845,2.845,0,0,1,.25.187c.085.071.169.148.249.229a1.273,1.273,0,0,1-.228.125.552.552,0,0,0-.188.125c-.665.333-1.323.689-1.956,1.061a14.848,14.848,0,0,0-1.83,1.269c-.331.275-.667.562-1,.853A3.94,3.94,0,0,0,10,38.907a5.122,5.122,0,0,0-.75,1.893,3.711,3.711,0,0,0,.25,2.018,2.6,2.6,0,0,0,.333.562,3.018,3.018,0,0,0,.457.479c.057.028.12.063.188.1a.376.376,0,0,0,.187.063,4.719,4.719,0,0,0,.562.125c.157.024.341.053.521.083h1a6.645,6.645,0,0,0,1.623-.354,6.151,6.151,0,0,0,1.456-.77,6.467,6.467,0,0,0,1.79-1.727,6.6,6.6,0,0,0,1-2.268,7.463,7.463,0,0,0,.249-1.872,6.438,6.438,0,0,0-.291-1.872.379.379,0,0,0-.041-.167.364.364,0,0,1-.042-.167l-.041-.082-.042-.084-.083-.167,2.288-1.332.041.042c-.028.057-.056.119-.082.187a.605.605,0,0,0-.042.229,14.685,14.685,0,0,0-.333,1.5,7.091,7.091,0,0,0-.083,1.54,8.67,8.67,0,0,0,.312,1.561,5.1,5.1,0,0,0,.728,1.477,1.352,1.352,0,0,0,1.145.562h.053a1.213,1.213,0,0,0,1.09-.562,2.837,2.837,0,0,0,.313-.375,1.764,1.764,0,0,0,.229-.457c.193-.387.382-.779.562-1.166s.357-.784.52-1.165l.083-.125c-.026.162-.048.33-.062.5s-.021.333-.021.5a3.456,3.456,0,0,0,0,.749,3.643,3.643,0,0,0,.167.749,1.864,1.864,0,0,0,.333.521.856.856,0,0,0,.541.271,1.23,1.23,0,0,0,.458-.083,1.109,1.109,0,0,0,.374-.25,2.332,2.332,0,0,0,.5-.479,4.754,4.754,0,0,0,.375-.562c.333-.582.662-1.17.978-1.747s.615-1.161.894-1.748c.3-.659.6-1.324.874-1.976s.57-1.314.873-1.977l.083-.208a6.853,6.853,0,0,1,.208.77,6.976,6.976,0,0,0,.208.77,7.971,7.971,0,0,0,.312.853,8.746,8.746,0,0,0,.4.811.569.569,0,0,1,.1.354.7.7,0,0,1-.146.312c-.381.435-.759.89-1.123,1.353-.349.443-.727.912-1.124,1.394a1.651,1.651,0,0,0-.229.292c-.071.114-.148.225-.229.333a1.712,1.712,0,0,0-.083.209c-.028.083-.056.166-.083.249a.472.472,0,0,0,.1.4.594.594,0,0,0,.354.229,1.531,1.531,0,0,0,.478.083h.437a4.7,4.7,0,0,0,1.477-.313,5.844,5.844,0,0,0,1.31-.728,3.265,3.265,0,0,0,1.082-1.415,4.217,4.217,0,0,0-.042-2.289,3.8,3.8,0,0,0-.208-.5.383.383,0,0,1-.02-.208.737.737,0,0,1,.062-.167,21.121,21.121,0,0,0,1.227-1.893c.376-.654.733-1.319,1.061-1.977a.119.119,0,0,1,.041-.082.122.122,0,0,0,.042-.083,13.127,13.127,0,0,0,.436,1.684,8.8,8.8,0,0,0,.729,1.6c-.141.141-.288.28-.436.416s-.3.278-.437.416a11.024,11.024,0,0,0-.832,1.019,3.441,3.441,0,0,0-.542,1.186,1.765,1.765,0,0,0-.166.542,2.057,2.057,0,0,0,0,.582.947.947,0,0,0,.374.708.928.928,0,0,0,.57.188,1.257,1.257,0,0,0,.221-.021,7.423,7.423,0,0,0,1.769-.708,4.691,4.691,0,0,0,1.435-1.29,2.223,2.223,0,0,0,.478-1.124,3.586,3.586,0,0,0-.1-1.248,3.141,3.141,0,0,0-.1-.333,2.482,2.482,0,0,1-.1-.375,3.683,3.683,0,0,1,.457-.146,3.426,3.426,0,0,0,.458-.146,8.99,8.99,0,0,1,2.038-.24c.145,0,.292,0,.437.011a8.009,8.009,0,0,1,2.434.52,3.965,3.965,0,0,1,1.249.708,3.411,3.411,0,0,1,.873,1.165,2.217,2.217,0,0,1,.208,1.6,2.333,2.333,0,0,1-1,1.311l-.1.048-.071.035a.48.48,0,0,0-.125.083.258.258,0,0,0-.062.1.459.459,0,0,0-.021.146l.062.041a.2.2,0,0,0,.1.042.991.991,0,0,0,.479-.126c.147-.08.293-.163.437-.249a4.136,4.136,0,0,0,.853-.853,2.348,2.348,0,0,0,.437-1.1v-.583a.074.074,0,0,1-.028-.046.022.022,0,0,1,.007-.016l.021-.021a3.936,3.936,0,0,0-.583-1.623,5.683,5.683,0,0,0-1.165-1.29,5.855,5.855,0,0,0-1.769-.915A7.693,7.693,0,0,0,44.073,31c-.137-.007-.276-.01-.413-.01a8.121,8.121,0,0,0-1.23.093,8.312,8.312,0,0,0-1.6.416c-.163.054-.317.11-.458.167s-.287.123-.457.208a.172.172,0,0,0-.041-.126.167.167,0,0,1-.042-.125c-.169-.312-.33-.627-.478-.937a3.635,3.635,0,0,1-.312-1.019c-.028-.253-.049-.505-.062-.749a3.2,3.2,0,0,1,.063-.791c.056-.223.119-.461.188-.708s.145-.483.228-.707a.572.572,0,0,0,0-.312.4.4,0,0,0-.207-.187,1.228,1.228,0,0,0-.146-.063.483.483,0,0,0-.146-.02,2.847,2.847,0,0,0-.564-.056c-.094,0-.192,0-.289.014a4.432,4.432,0,0,0-.853.167.442.442,0,0,0-.375.374.784.784,0,0,0-.062.188.729.729,0,0,1-.062.187,6.982,6.982,0,0,0-.208.77,2.753,2.753,0,0,1-.291.77c-.3.629-.623,1.252-.957,1.852-.365.654-.692,1.232-1,1.768-.057.085-.1.154-.146.209a.728.728,0,0,0-.1.207c-.14-.252-.266-.5-.375-.728a2.374,2.374,0,0,1-.208-.77,6.845,6.845,0,0,1-.1-.915,4.081,4.081,0,0,1,.063-.916,6.046,6.046,0,0,1,.208-.666,6,6,0,0,0,.208-.665.644.644,0,0,0,.021-.27c-.014-.069-.077-.132-.188-.187a1.061,1.061,0,0,0-.146-.063,1.047,1.047,0,0,1-.146-.062c-.153-.013-.306-.021-.457-.021s-.3.007-.457.021a4.47,4.47,0,0,0-.874.167.465.465,0,0,0-.333.375c-.08.268-.164.541-.25.811s-.182.539-.292.811l-1.252,2.8-.162.362q-.708,1.581-1.415,3.163a5.386,5.386,0,0,1-.292.645c-.121.228-.229.439-.333.645a1.127,1.127,0,0,1-.1.166,1.188,1.188,0,0,1-.1.125.293.293,0,0,1-.062-.083l-.021-.042a4.068,4.068,0,0,0-.021-.416,1.4,1.4,0,0,1,.021-.416c.076-.352.157-.739.25-1.186.081-.393.179-.792.291-1.186.086-.315.17-.637.25-.957.09-.36.172-.673.25-.957a1.276,1.276,0,0,0,.041-.312.373.373,0,0,0-.125-.27.81.81,0,0,0-.54-.292,1.121,1.121,0,0,0-.13-.009.8.8,0,0,0-.453.133l-.166.083.041-.208a6.715,6.715,0,0,0,.042-.749,3.493,3.493,0,0,0-.083-.75,1.217,1.217,0,0,0-.437-.686,1.342,1.342,0,0,0-.811-.229,2.431,2.431,0,0,0-.437.042,2.314,2.314,0,0,0-.437.125A5.791,5.791,0,0,0,23,29.941a7.63,7.63,0,0,0-1.228,1.269.563.563,0,0,1-.1.146.578.578,0,0,1-.146.1c-.461.244-.944.5-1.436.77-.475.258-.971.531-1.476.811l-1.041.583a4.3,4.3,0,0,1-.436-.417,2.349,2.349,0,0,0-.437-.374c-.437-.382-.891-.76-1.352-1.123-.443-.349-.912-.714-1.394-1.082-.4-.344-.793-.687-1.165-1.019a7.382,7.382,0,0,1-1.04-1.145,4.715,4.715,0,0,1-.521-1.019,4.233,4.233,0,0,1-.229-1.145,5.458,5.458,0,0,1,.188-1.435,5.19,5.19,0,0,1,.562-1.311,8.36,8.36,0,0,1,1.165-1.519,16.967,16.967,0,0,1,1.373-1.269c.523-.413,1.069-.8,1.623-1.165s1.127-.709,1.707-1.04c.827-.469,1.674-.9,2.517-1.29a17.789,17.789,0,0,1,2.6-.957,19.327,19.327,0,0,1,2.788-.624,10.9,10.9,0,0,1,1.584-.116,11.308,11.308,0,0,1,1.286.074,9.53,9.53,0,0,1,1.124.229,5.576,5.576,0,0,1,1.04.4,2.469,2.469,0,0,1,.707.52,2.322,2.322,0,0,1,.457.729,2.95,2.95,0,0,1,.125.853,5.031,5.031,0,0,1-.083.894,5.336,5.336,0,0,1-.666,1.6,9.261,9.261,0,0,1-1.081,1.394,10.116,10.116,0,0,1-2.206,1.81A15.313,15.313,0,0,1,25.266,25.3c-.525.166-1.07.313-1.622.437a9.892,9.892,0,0,1-1.665.229,5.363,5.363,0,0,1-1.332,0,6.725,6.725,0,0,1-1.289-.292,3.406,3.406,0,0,1-.811-.416,5.244,5.244,0,0,1-.687-.583.313.313,0,0,0-.1-.125.089.089,0,0,0-.049-.014.268.268,0,0,0-.139.056.188.188,0,0,0-.1.125.24.24,0,0,0,.02.167,3.323,3.323,0,0,0,.1.333,1.441,1.441,0,0,0,.146.291,2.27,2.27,0,0,0,.5.624,6.929,6.929,0,0,0,.665.5,4.038,4.038,0,0,0,1.352.583,8.915,8.915,0,0,0,1.519.208c.152.006.309.009.466.009A12.518,12.518,0,0,0,24.06,27.3a21.477,21.477,0,0,0,2.246-.458,12.8,12.8,0,0,0,2.954-1.269,11.217,11.217,0,0,0,2.5-2.018,11.519,11.519,0,0,0,1.54-2.226,6.838,6.838,0,0,0,.749-2.6,5.37,5.37,0,0,0,0-1.331,3.708,3.708,0,0,0-.416-1.29,3.883,3.883,0,0,0-.874-1.207,5.229,5.229,0,0,0-1.207-.832,8.278,8.278,0,0,0-2-.811,8.428,8.428,0,0,0-2.122-.271ZM12.748,42.18c-.049,0-.1,0-.151-.007a1.557,1.557,0,0,1-.437-.1.709.709,0,0,1-.437-.375,1.39,1.39,0,0,1-.1-.541,2.779,2.779,0,0,1,.146-.916,7.2,7.2,0,0,1,.354-.832,4.523,4.523,0,0,1,.707-.916c.275-.274.569-.541.874-.791a15.845,15.845,0,0,1,1.518-1.123c.508-.33,1.033-.652,1.561-.957l.083-.042a7.2,7.2,0,0,1,.188.916,4.11,4.11,0,0,1,.021.915,5.049,5.049,0,0,1-.562,2.019A6.1,6.1,0,0,1,15.2,41.071a4.378,4.378,0,0,1-1,.686,4.6,4.6,0,0,1-1.165.4A1.476,1.476,0,0,1,12.748,42.18Zm18.6-3.9a.412.412,0,0,1-.172-.036l2.039-2.414a2.347,2.347,0,0,1-.749,1.644C32.009,38.007,31.633,38.278,31.347,38.278Zm-8.756-.222-.028,0a.3.3,0,0,1-.208-.187,4.024,4.024,0,0,1-.146-.437c-.042-.155-.077-.316-.1-.478a1.324,1.324,0,0,1-.041-.313v-.312a6.9,6.9,0,0,1,.333-2.143,9.5,9.5,0,0,1,.916-1.977,8.287,8.287,0,0,1,.521-.77,2.419,2.419,0,0,1,.686-.6,1.839,1.839,0,0,0,.249-.1,1.4,1.4,0,0,1,.292-.1.45.45,0,0,1,.164-.037.2.2,0,0,1,.148.058.33.33,0,0,1,.063.312,6.736,6.736,0,0,1-.125.687c-.064.272-.119.511-.167.729-.249.775-.522,1.559-.811,2.33s-.6,1.541-.936,2.289a4.091,4.091,0,0,1-.25.436,2.158,2.158,0,0,0-.208.4l-.063.063a.085.085,0,0,1-.062.02A.3.3,0,0,1,22.59,38.056Zm14.567-1.174a.045.045,0,0,1-.032-.014.24.24,0,0,1-.042-.167v-.1a.139.139,0,0,1,.042-.1,5.538,5.538,0,0,1,.583-1.374A4.6,4.6,0,0,1,38.665,34l.041-.041a2.007,2.007,0,0,1,0,1.5,2.286,2.286,0,0,1-1,1.166.535.535,0,0,1-.209.125l-.094.032-.047.016-.108.036A.153.153,0,0,1,37.157,36.883Z" transform="translate(675 337)" fill="#ff1a53"/>
    <path id="Subtraction_9" data-name="Subtraction 9" d="M23.5,47A23.506,23.506,0,0,1,14.353,1.846,23.506,23.506,0,0,1,32.648,45.153,23.353,23.353,0,0,1,23.5,47ZM16.85,27.345h0l-3.765,2.176,9.974,5.647v-4.4L16.85,27.345Zm13.3,0h0L23.94,30.769v4.4l9.974-5.647L30.15,27.345ZM16.924,19.693h0v6.7l6.136,3.374V23.238l-6.136-3.545Zm13.152,0h0L23.94,23.238v6.528l6.136-3.374v-6.7ZM12.4,17.077h0V28.91l3.642-2.127V19.2L12.4,17.077Zm22.2,0h0L30.957,19.2v7.579l3.643,2.1V17.077Zm-11.1-1.54h0l-6.161,3.4L23.5,22.48l6.161-3.545-6.161-3.4Zm-.44-5.012h0L12.816,16.32l3.643,2.1,6.6-3.643V10.526Zm.88,0h0v4.253l6.6,3.643,3.643-2.1L23.94,10.526Z" transform="translate(626 370)" fill="#ff1a53"/>
    <path id="Subtraction_2" data-name="Subtraction 2" d="M20.5,41A20.506,20.506,0,0,1,12.52,1.611,20.505,20.505,0,0,1,28.48,39.389,20.376,20.376,0,0,1,20.5,41ZM10.374,10.506V30.023H29.891V10.506ZM25.343,28.423c-.144,0-.289-.007-.429-.02-.121-.011-.251-.023-.41-.04A3.564,3.564,0,0,1,23.44,28a3.728,3.728,0,0,1-.888-.653,4.584,4.584,0,0,1-.332-.449c-.175-.263-.184-.3-.176-.312a.312.312,0,0,1,.078-.059.918.918,0,0,0,.1-.058l.722-.41.566-.332.117.176a2.092,2.092,0,0,0,.323.39,2.663,2.663,0,0,0,.4.313,2.006,2.006,0,0,0,.93.227c.04,0,.079,0,.114,0a1.4,1.4,0,0,0,.869-.3.889.889,0,0,0,.185-.273.819.819,0,0,0,.068-.331.9.9,0,0,0-.039-.264.68.68,0,0,0-.117-.224,1.38,1.38,0,0,0-.4-.322c-.188-.11-.491-.26-.927-.458a8.163,8.163,0,0,1-1.152-.556,3.116,3.116,0,0,1-.682-.576,2.009,2.009,0,0,1-.332-.439,2.457,2.457,0,0,1-.215-.517,2.192,2.192,0,0,1-.048-.361c-.007-.122-.01-.25-.01-.381,0-.091,0-.183.01-.273s.01-.191.01-.273a2.255,2.255,0,0,1,.683-1.19,2.67,2.67,0,0,1,1.327-.645c.1-.013.2-.023.293-.029s.2-.01.313-.01a3.577,3.577,0,0,1,.458.029c.148.019.3.042.439.068l-.02-.02a2.984,2.984,0,0,1,.664.273,2.238,2.238,0,0,1,.546.43,2.677,2.677,0,0,1,.254.293c.084.113.154.215.215.313a2.381,2.381,0,0,1-.479.371c-.319.221-.611.412-.868.566a.015.015,0,0,1-.011.005c-.013,0-.033-.015-.057-.044a1.232,1.232,0,0,1-.107-.156,1.078,1.078,0,0,0-.381-.381,1.2,1.2,0,0,0-.537-.167c-.047,0-.091-.006-.133-.006a.89.89,0,0,0-.579.182.74.74,0,0,0-.264.605v.02a.834.834,0,0,0,.02.185.436.436,0,0,0,.078.166.97.97,0,0,0,.323.352,5.509,5.509,0,0,0,.79.41,10.494,10.494,0,0,1,1.571.79,2.892,2.892,0,0,1,.81.771A2.411,2.411,0,0,1,28.33,25.6a2.793,2.793,0,0,1-.156,1.239,2.216,2.216,0,0,1-.791,1.006,3.23,3.23,0,0,1-1.357.536c-.094.012-.2.022-.331.03S25.457,28.423,25.343,28.423Zm-6.362-.1h-1.8V21.1H14.648v-.976c0-.1,0-.213.01-.323s.01-.215.01-.322c.012.013.347.02,1.024.02h5.826v1.6H18.981v7.221Z" transform="translate(812 432)" fill="#ff1a53"/>
    <path id="Subtraction_1" data-name="Subtraction 1" d="M26,52A26.007,26.007,0,0,1,15.88,2.043,26.007,26.007,0,0,1,36.12,49.957,25.836,25.836,0,0,1,26,52ZM37.659,29.231a.063.063,0,0,1,.052.024c.04.052.032.187-.023.4-.128.5-.011.845.348,1.024a.643.643,0,0,0,.238.05c.276,0,.508-.225.69-.668l.348-.851,1.276-3.52H40.7l.193,1.2a1.631,1.631,0,0,0,1.122,1.469,2.163,2.163,0,0,0,.609.089,2.568,2.568,0,0,0,1.286-.378l.966-.561a.784.784,0,0,0,.29-.29.822.822,0,0,0,.1-.405.328.328,0,0,0-.019-.1.319.319,0,0,1-.02-.1.45.45,0,0,0-.135-.329.409.409,0,0,0-.29-.136.425.425,0,0,0-.135.02.25.25,0,0,0-.1.058,4.986,4.986,0,0,0-.6.347,1.793,1.793,0,0,1-.957.285,1.748,1.748,0,0,1-.223-.014c-.411-.025-.613-.357-.6-.986s.019-.948.019-.948.007-.29.02-.871-.1-.909-.329-.986a.635.635,0,0,0-.2-.033.842.842,0,0,0-.515.208l-.368.29a4.185,4.185,0,0,0-.657.851,5.978,5.978,0,0,0-.464,1.005l-.116.077.039-.987a6.314,6.314,0,0,0-.039-1.334c-.041-.082-.171-.124-.384-.124-.054,0-.114,0-.177.008-.321.026-.523.13-.6.309s-.246.779-.5,1.779a12.593,12.593,0,0,0-.426,2.321s-.308.225-.87.638a3.849,3.849,0,0,1-1.8.754,2.9,2.9,0,0,1-.491.048.912.912,0,0,1-.708-.241l-.309-.348,1.663-.812a2.762,2.762,0,0,0,1.586-2.823c-.07-1.218-.482-1.835-1.226-1.835a1.608,1.608,0,0,0-.224.017,5.72,5.72,0,0,0-1.566.348,11.61,11.61,0,0,0-1.063.948,4.909,4.909,0,0,0-1.18,2.688c0,.052-.007.146-.019.27s-.019.193-.019.193a8.16,8.16,0,0,1-.928.58c-.332.179-.67.348-1.005.5a.245.245,0,0,1-.1.025.086.086,0,0,1-.077-.04c-.1-.151.093-.738.561-1.744a2.228,2.228,0,0,0-.928-3.152,1.28,1.28,0,0,0-.7-.248.931.931,0,0,0-.7.345l-.58.638.918-1.326.648-.937a5.6,5.6,0,0,0,1.025-4.583,1.982,1.982,0,0,0-.774-1.373,1.266,1.266,0,0,0-.569-.142,1.216,1.216,0,0,0-.436.084,3,3,0,0,0-.812.406,3.073,3.073,0,0,0-.619.6A11.709,11.709,0,0,0,25.1,19.2a10.165,10.165,0,0,0-.561,2.552c-.155,1.471-.324,2.928-.5,4.331q-.27,2.127-.271,2.127l-.1.082-.305.247a1.317,1.317,0,0,1-.831.328l-.038,0a.3.3,0,0,1-.229-.094,1.058,1.058,0,0,1-.14-.759q.058-.889.058-.889l.232-1.431a9.61,9.61,0,0,0,.193-1.779,2.455,2.455,0,0,0-.116-.522c-.052-.141-.221-.252-.5-.329a.814.814,0,0,0-.216-.031.8.8,0,0,0-.558.243l-.348.328s-.34.524-.793,1.218a16.281,16.281,0,0,0-.908,1.488l-.078.156-.077-.117s.064-.254.19-.752l.216-.853c.184-.725.186-1.217.006-1.459a.467.467,0,0,0-.374-.184l-.1,0a1.451,1.451,0,0,0-1.161.545l-.483.58-.6,1.044a10.013,10.013,0,0,0-.638,1.2l-.077-.117.232-1.238a5.637,5.637,0,0,0,.156-1.663.422.422,0,0,0-.156-.328.567.567,0,0,0-.386-.136h-.116l-.348.02a.559.559,0,0,0-.5.367c-.179.59-.349,1.247-.5,1.952s-.282,1.433-.387,2.185a1.362,1.362,0,0,1-1.121,1.277,11,11,0,0,1-1.779.154c-.564,0-.876-.124-.928-.368l-.077-.367,1.034-.559.9-.485a2.261,2.261,0,0,0,1.083-3.171,1.968,1.968,0,0,0-.735-.677,2.093,2.093,0,0,0-1.006-.251h-.193a2.527,2.527,0,0,0-1.353.445,3.486,3.486,0,0,0-1.2,1.6c-.1.277-.2.583-.29.909a5.121,5.121,0,0,0-.174.986v.039l-.425.019H7.653a1.092,1.092,0,0,1-.67-.214.529.529,0,0,0-.318-.154.222.222,0,0,0-.126.039l-.175.116-.251.464a.48.48,0,0,0-.064.393.494.494,0,0,0,.315.264c.259.078.533.15.813.213a6.489,6.489,0,0,0,.889.135H8.1a3.087,3.087,0,0,0,.425,1.063,2.679,2.679,0,0,0,.774.793,2.145,2.145,0,0,0,1.364.473,3.1,3.1,0,0,0,.9-.144L12.9,30.1l.967-.541s.016.07.115.484a.7.7,0,0,0,.619.56,1.209,1.209,0,0,0,.169.012,1.022,1.022,0,0,0,.759-.341,12.008,12.008,0,0,0,1.315-2.65,13.656,13.656,0,0,1,.657-1.315l.116-.155H17.7c0,.007-.093.571-.251,1.547a6.214,6.214,0,0,0-.1,2.166.757.757,0,0,0,.657.638l.5.058.309-.135c.206-.089.414-.5.619-1.218.179-.589.374-1.155.58-1.682s.426-1.026.657-1.49l.039.116L20.6,27.782A4.129,4.129,0,0,0,20.9,30.1a.936.936,0,0,0,.843.582,1.2,1.2,0,0,0,.3-.04l.755-.193c.2-.1.4-.206.58-.309a6.25,6.25,0,0,0,.541-.348,3.8,3.8,0,0,0,1.064.619,3.47,3.47,0,0,0,1.257.232,1.082,1.082,0,0,0,.213-.019.9.9,0,0,1,.174-.019,15.135,15.135,0,0,0,3.751-1.064l1.083-.56a3.11,3.11,0,0,0,1.005,1.16,3.009,3.009,0,0,0,1.47.541h.425a4.22,4.22,0,0,0,2.939-1.2C37.469,29.316,37.589,29.231,37.659,29.231Zm-11.135,0a1.28,1.28,0,0,1-.187-.014l-1.025-.155-.039-.619a7.11,7.11,0,0,1,.426-2.127c.28-.933.656-1.406,1.116-1.406a.717.717,0,0,1,.141.014l.793.155.387.619c.257.41.192,1.139-.193,2.165C27.594,28.767,27.116,29.227,26.525,29.227ZM9.884,26.97h0a2.8,2.8,0,0,1,.735-2.088,1.318,1.318,0,0,1,.773-.412.4.4,0,0,1,.271.1.876.876,0,0,1,.213.909,1.679,1.679,0,0,1-.793,1.025,2.24,2.24,0,0,1-.909.444l-.289.019Zm23.242,0h0v-.482a3.389,3.389,0,0,1,.5-1.412c.277-.51.521-.768.727-.768a.248.248,0,0,1,.125.033l.348.194s.069.139.213.425.043.66-.29,1.121a2.216,2.216,0,0,1-.7.638A1.8,1.8,0,0,1,33.125,26.97Zm-7.579-3.251h0a14.053,14.053,0,0,1,.522-2.549l.483-1.778.619-1.334c.223-.481.411-.725.558-.725.124,0,.222.172.292.512.128.744-.256,1.922-1.141,3.5L25.554,23.7Z" transform="translate(859 409)" fill="#ff1a53"/>
    <path id="Subtraction_12" data-name="Subtraction 12" d="M21.5,43A21.506,21.506,0,0,1,13.131,1.69,21.506,21.506,0,0,1,29.869,41.311,21.367,21.367,0,0,1,21.5,43ZM14.68,26.462v1.82h6.9v-1.82H37.146V15.48H6.02V26.462Zm5.177,0H16.406V17.3h6.9v7.31H19.857v1.851Zm0-7.31v3.639h1.725V19.152Zm12.112,5.46H30.243V19.152H28.486v5.459H25.035V17.3H35.42v7.31H33.694V19.152H31.969v5.459Zm-20.772,0H7.746V17.3H14.68v7.31H12.923V19.152H11.2v5.459Z" transform="translate(753 331)" fill="#ff1a53"/>
  </g>
</svg>
