<svg width="196" height="196" viewBox="0 0 196 196" xmlns="http://www.w3.org/2000/svg"><g fill-rule="nonzero" fill="none"><rect fill="#000" width="196" height="196" rx="20"/><path d="M127.705 144.667c2.795 0 5.498-.184 8.11-.55 2.612-.367 4.526-.734 5.74-1.1V85.622c0-10.758-3.705-19.162-11.116-25.213-7.411-6.051-17.981-9.077-31.71-9.077-7.654 0-14.61.917-20.867 2.75-6.257 1.834-11.45 4.218-15.581 7.152-2.43 1.712-4.344 3.606-5.74 5.684-1.398 2.079-2.097 4.768-2.097 8.069v55.01c0 3.055.395 5.53 1.185 7.426.79 1.894 1.914 3.392 3.371 4.492 1.458 1.1 3.25 1.834 5.377 2.2 2.126.367 4.525.55 7.198.55 2.794 0 5.498-.183 8.11-.55 2.612-.366 4.525-.733 5.74-1.1V79.388c1.701-1.222 3.736-2.139 6.105-2.75a28.703 28.703 0 017.199-.917c3.645 0 6.53.886 8.656 2.659 2.127 1.772 3.19 4.553 3.19 8.343v43.274c0 3.056.394 5.532 1.184 7.427.79 1.894 1.914 3.392 3.372 4.492s3.25 1.834 5.376 2.2c2.126.367 4.525.55 7.198.55z" fill="#FFF"/></g></svg>